<mxfile host="app.diagrams.net" modified="2022-03-17T07:57:47.221Z" agent="5.0 (Windows NT 10.0; Win64; x64) AppleWebKit/537.36 (KHTML, like Gecko) Chrome/99.0.4844.74 Safari/537.36" etag="QN9UmPf_sHTnrdSritlQ" version="17.1.3" type="github">
  <diagram id="qp7meZ9fyToWihRMTy-W" name="Page-1">
    <mxGraphModel dx="1929" dy="1000" grid="0" gridSize="10" guides="1" tooltips="1" connect="1" arrows="1" fold="1" page="1" pageScale="1" pageWidth="150000" pageHeight="150000" math="0" shadow="0">
      <root>
        <mxCell id="0" />
        <mxCell id="1" parent="0" />
        <mxCell id="oRzCMFhJWEvcP08ix0-i-83" value="" style="endArrow=none;dashed=1;html=1;rounded=0;fontSize=15;entryX=0.5;entryY=1;entryDx=0;entryDy=0;fontColor=#3399FF;strokeColor=#3399FF;" parent="1" edge="1">
          <mxGeometry width="50" height="50" relative="1" as="geometry">
            <mxPoint x="478" y="1801" as="sourcePoint" />
            <mxPoint x="478.4999999999998" y="1667" as="targetPoint" />
            <Array as="points" />
          </mxGeometry>
        </mxCell>
        <mxCell id="mK8-xpyxY12oYqtk83cb-34" value="" style="rounded=1;whiteSpace=wrap;html=1;fillColor=#f5f5f5;fontColor=#333333;strokeColor=#666666;" parent="1" vertex="1">
          <mxGeometry x="1013" y="287" width="380" height="150" as="geometry" />
        </mxCell>
        <mxCell id="mK8-xpyxY12oYqtk83cb-23" value="" style="rounded=0;whiteSpace=wrap;html=1;fillColor=#eeeeee;strokeColor=#36393d;fontSize=15;" parent="1" vertex="1">
          <mxGeometry x="309" y="721" width="363" height="140" as="geometry" />
        </mxCell>
        <mxCell id="mK8-xpyxY12oYqtk83cb-22" value="" style="rounded=0;whiteSpace=wrap;html=1;fillColor=#eeeeee;strokeColor=#36393d;" parent="1" vertex="1">
          <mxGeometry x="309" y="339" width="361" height="340" as="geometry" />
        </mxCell>
        <mxCell id="mK8-xpyxY12oYqtk83cb-6" value="TR069" style="rounded=0;whiteSpace=wrap;html=1;fillColor=#dae8fc;strokeColor=#6c8ebf;fontSize=15;" parent="1" vertex="1">
          <mxGeometry x="339" y="361" width="120" height="60" as="geometry" />
        </mxCell>
        <mxCell id="mK8-xpyxY12oYqtk83cb-7" value="WEBGUI" style="rounded=0;whiteSpace=wrap;html=1;fillColor=#dae8fc;strokeColor=#6c8ebf;fontSize=15;" parent="1" vertex="1">
          <mxGeometry x="519" y="361" width="120" height="60" as="geometry" />
        </mxCell>
        <mxCell id="mK8-xpyxY12oYqtk83cb-8" value="TCAPI" style="rounded=0;whiteSpace=wrap;html=1;fillColor=#f8cecc;strokeColor=#b85450;fontSize=15;" parent="1" vertex="1">
          <mxGeometry x="379" y="481" width="230" height="60" as="geometry" />
        </mxCell>
        <mxCell id="mK8-xpyxY12oYqtk83cb-10" value="Agent SafeApp" style="rounded=0;whiteSpace=wrap;html=1;fillColor=#fff2cc;strokeColor=#d6b656;fontSize=15;" parent="1" vertex="1">
          <mxGeometry x="409" y="601" width="170" height="60" as="geometry" />
        </mxCell>
        <mxCell id="mK8-xpyxY12oYqtk83cb-11" value="" style="shape=flexArrow;endArrow=classic;startArrow=classic;html=1;rounded=0;exitX=0.129;exitY=-0.006;exitDx=0;exitDy=0;exitPerimeter=0;entryX=0.589;entryY=1.011;entryDx=0;entryDy=0;entryPerimeter=0;fillColor=#1ba1e2;strokeColor=#006EAF;" parent="1" source="mK8-xpyxY12oYqtk83cb-8" target="mK8-xpyxY12oYqtk83cb-6" edge="1">
          <mxGeometry width="100" height="100" relative="1" as="geometry">
            <mxPoint x="339" y="541" as="sourcePoint" />
            <mxPoint x="439" y="441" as="targetPoint" />
          </mxGeometry>
        </mxCell>
        <mxCell id="mK8-xpyxY12oYqtk83cb-12" value="" style="shape=flexArrow;endArrow=classic;startArrow=classic;html=1;rounded=0;entryX=0.808;entryY=1;entryDx=0;entryDy=0;entryPerimeter=0;fillColor=#1ba1e2;strokeColor=#006EAF;" parent="1" edge="1">
          <mxGeometry width="100" height="100" relative="1" as="geometry">
            <mxPoint x="579" y="481" as="sourcePoint" />
            <mxPoint x="579" y="421" as="targetPoint" />
          </mxGeometry>
        </mxCell>
        <mxCell id="mK8-xpyxY12oYqtk83cb-13" value="" style="shape=flexArrow;endArrow=classic;startArrow=classic;html=1;rounded=0;entryX=0.5;entryY=1;entryDx=0;entryDy=0;exitX=0.5;exitY=0;exitDx=0;exitDy=0;fillColor=#1ba1e2;strokeColor=#006EAF;" parent="1" source="mK8-xpyxY12oYqtk83cb-10" target="mK8-xpyxY12oYqtk83cb-8" edge="1">
          <mxGeometry width="100" height="100" relative="1" as="geometry">
            <mxPoint x="494.20000000000016" y="641" as="sourcePoint" />
            <mxPoint x="493.65999999999974" y="561" as="targetPoint" />
          </mxGeometry>
        </mxCell>
        <mxCell id="mK8-xpyxY12oYqtk83cb-16" value="Ethernet" style="rounded=0;whiteSpace=wrap;html=1;fillColor=#cce5ff;strokeColor=#36393d;fontSize=15;" parent="1" vertex="1">
          <mxGeometry x="379" y="805" width="100" height="50" as="geometry" />
        </mxCell>
        <mxCell id="mK8-xpyxY12oYqtk83cb-17" value="WLan" style="rounded=0;whiteSpace=wrap;html=1;fillColor=#cce5ff;strokeColor=#36393d;fontSize=15;" parent="1" vertex="1">
          <mxGeometry x="379" y="741" width="100" height="50" as="geometry" />
        </mxCell>
        <mxCell id="mK8-xpyxY12oYqtk83cb-18" value="LAN" style="rounded=0;whiteSpace=wrap;html=1;fillColor=#cce5ff;strokeColor=#36393d;fontSize=15;" parent="1" vertex="1">
          <mxGeometry x="529" y="741" width="100" height="50" as="geometry" />
        </mxCell>
        <mxCell id="mK8-xpyxY12oYqtk83cb-19" value="PON" style="rounded=0;whiteSpace=wrap;html=1;fillColor=#cce5ff;strokeColor=#36393d;fontSize=15;" parent="1" vertex="1">
          <mxGeometry x="527" y="805" width="100" height="50" as="geometry" />
        </mxCell>
        <mxCell id="mK8-xpyxY12oYqtk83cb-24" value="Userspace" style="text;html=1;strokeColor=none;fillColor=none;align=center;verticalAlign=middle;whiteSpace=wrap;rounded=0;rotation=-90;fontSize=15;" parent="1" vertex="1">
          <mxGeometry x="269" y="491" width="110" height="40" as="geometry" />
        </mxCell>
        <mxCell id="mK8-xpyxY12oYqtk83cb-25" value="Kernel space" style="text;html=1;strokeColor=none;fillColor=none;align=center;verticalAlign=middle;whiteSpace=wrap;rounded=0;rotation=-90;fontSize=15;" parent="1" vertex="1">
          <mxGeometry x="264" y="769" width="110" height="40" as="geometry" />
        </mxCell>
        <mxCell id="mK8-xpyxY12oYqtk83cb-28" value="" style="shape=flexArrow;endArrow=classic;html=1;rounded=0;fillColor=#1ba1e2;strokeColor=#006EAF;" parent="1" target="mK8-xpyxY12oYqtk83cb-23" edge="1">
          <mxGeometry width="50" height="50" relative="1" as="geometry">
            <mxPoint x="490" y="680" as="sourcePoint" />
            <mxPoint x="488" y="718" as="targetPoint" />
          </mxGeometry>
        </mxCell>
        <mxCell id="mK8-xpyxY12oYqtk83cb-30" value="Open SSL Socket" style="rounded=0;whiteSpace=wrap;html=1;fillColor=#dae8fc;strokeColor=#6c8ebf;fontSize=15;" parent="1" vertex="1">
          <mxGeometry x="1030" y="337" width="140" height="80" as="geometry" />
        </mxCell>
        <mxCell id="mK8-xpyxY12oYqtk83cb-31" value="Message handle" style="rounded=0;whiteSpace=wrap;html=1;fillColor=#dae8fc;strokeColor=#6c8ebf;fontSize=15;" parent="1" vertex="1">
          <mxGeometry x="1233" y="337" width="140" height="80" as="geometry" />
        </mxCell>
        <mxCell id="mK8-xpyxY12oYqtk83cb-32" value="Database" style="rounded=0;whiteSpace=wrap;html=1;fillColor=#fff2cc;strokeColor=#d6b656;fontSize=15;" parent="1" vertex="1">
          <mxGeometry x="1483" y="337" width="140" height="80" as="geometry" />
        </mxCell>
        <mxCell id="mK8-xpyxY12oYqtk83cb-33" value="Manager&lt;br&gt;(TR069/WebGUI)" style="rounded=0;whiteSpace=wrap;html=1;fillColor=#fff2cc;strokeColor=#d6b656;fontSize=15;" parent="1" vertex="1">
          <mxGeometry x="1486" y="178" width="140" height="80" as="geometry" />
        </mxCell>
        <mxCell id="mK8-xpyxY12oYqtk83cb-35" value="" style="endArrow=classic;html=1;rounded=0;exitX=1;exitY=0.5;exitDx=0;exitDy=0;entryX=0;entryY=0.5;entryDx=0;entryDy=0;" parent="1" source="mK8-xpyxY12oYqtk83cb-30" target="mK8-xpyxY12oYqtk83cb-31" edge="1">
          <mxGeometry width="50" height="50" relative="1" as="geometry">
            <mxPoint x="1173" y="397" as="sourcePoint" />
            <mxPoint x="1223" y="347" as="targetPoint" />
          </mxGeometry>
        </mxCell>
        <mxCell id="oRzCMFhJWEvcP08ix0-i-1" value="Agent SafeApp" style="text;html=1;strokeColor=none;fillColor=none;align=center;verticalAlign=middle;whiteSpace=wrap;rounded=0;" parent="1" vertex="1">
          <mxGeometry x="1115.5" y="297" width="165" height="30" as="geometry" />
        </mxCell>
        <mxCell id="oRzCMFhJWEvcP08ix0-i-2" value="" style="endArrow=classic;html=1;rounded=0;entryX=0.5;entryY=0;entryDx=0;entryDy=0;exitX=0;exitY=0.5;exitDx=0;exitDy=0;" parent="1" source="mK8-xpyxY12oYqtk83cb-33" target="mK8-xpyxY12oYqtk83cb-34" edge="1">
          <mxGeometry width="50" height="50" relative="1" as="geometry">
            <mxPoint x="1143" y="247" as="sourcePoint" />
            <mxPoint x="1193" y="197" as="targetPoint" />
            <Array as="points">
              <mxPoint x="1203" y="217" />
            </Array>
          </mxGeometry>
        </mxCell>
        <mxCell id="oRzCMFhJWEvcP08ix0-i-3" value="Start App" style="text;html=1;strokeColor=none;fillColor=none;align=center;verticalAlign=middle;whiteSpace=wrap;rounded=0;fontSize=14;" parent="1" vertex="1">
          <mxGeometry x="1245" y="191" width="148" height="30" as="geometry" />
        </mxCell>
        <mxCell id="oRzCMFhJWEvcP08ix0-i-4" value="" style="endArrow=classic;html=1;rounded=0;entryX=0.004;entryY=0.475;entryDx=0;entryDy=0;exitX=1.003;exitY=0.587;exitDx=0;exitDy=0;exitPerimeter=0;entryPerimeter=0;" parent="1" source="mK8-xpyxY12oYqtk83cb-34" target="mK8-xpyxY12oYqtk83cb-32" edge="1">
          <mxGeometry width="50" height="50" relative="1" as="geometry">
            <mxPoint x="1393" y="427" as="sourcePoint" />
            <mxPoint x="1443" y="377" as="targetPoint" />
          </mxGeometry>
        </mxCell>
        <mxCell id="oRzCMFhJWEvcP08ix0-i-5" value="TCAPI" style="text;html=1;strokeColor=none;fillColor=none;align=center;verticalAlign=middle;whiteSpace=wrap;rounded=0;" parent="1" vertex="1">
          <mxGeometry x="1393" y="347" width="60" height="30" as="geometry" />
        </mxCell>
        <mxCell id="oRzCMFhJWEvcP08ix0-i-10" value="Function&lt;br&gt;call" style="text;html=1;strokeColor=none;fillColor=none;align=center;verticalAlign=middle;whiteSpace=wrap;rounded=0;" parent="1" vertex="1">
          <mxGeometry x="1168" y="357" width="60" height="40" as="geometry" />
        </mxCell>
        <mxCell id="oRzCMFhJWEvcP08ix0-i-14" value="" style="endArrow=none;dashed=1;html=1;dashPattern=1 3;strokeWidth=2;rounded=0;fontColor=#3399FF;strokeColor=#3399FF;" parent="1" edge="1">
          <mxGeometry width="50" height="50" relative="1" as="geometry">
            <mxPoint x="191" y="1809" as="sourcePoint" />
            <mxPoint x="191" y="1297" as="targetPoint" />
          </mxGeometry>
        </mxCell>
        <mxCell id="oRzCMFhJWEvcP08ix0-i-15" value="Message handle" style="rounded=1;whiteSpace=wrap;html=1;fillColor=#1ba1e2;fontColor=#ffffff;strokeColor=#006EAF;fontSize=15;" parent="1" vertex="1">
          <mxGeometry x="141" y="1237" width="120" height="60" as="geometry" />
        </mxCell>
        <mxCell id="oRzCMFhJWEvcP08ix0-i-21" value="&lt;font style=&quot;font-size: 13px&quot;&gt;Parse Message&lt;/font&gt;" style="endArrow=classic;html=1;rounded=0;fillColor=#1ba1e2;strokeColor=#006EAF;fontColor=#3399FF;" parent="1" edge="1">
          <mxGeometry x="-0.0909" y="10" relative="1" as="geometry">
            <mxPoint x="195" y="1461" as="sourcePoint" />
            <mxPoint x="194" y="1511" as="targetPoint" />
            <Array as="points">
              <mxPoint x="231" y="1461" />
              <mxPoint x="231" y="1511" />
            </Array>
            <mxPoint as="offset" />
          </mxGeometry>
        </mxCell>
        <mxCell id="oRzCMFhJWEvcP08ix0-i-25" value="Rule handle" style="rounded=1;whiteSpace=wrap;html=1;fillColor=#1ba1e2;fontColor=#ffffff;strokeColor=#006EAF;fontSize=15;" parent="1" vertex="1">
          <mxGeometry x="418.5" y="1237" width="120" height="60" as="geometry" />
        </mxCell>
        <mxCell id="oRzCMFhJWEvcP08ix0-i-26" value="" style="endArrow=none;dashed=1;html=1;dashPattern=1 3;strokeWidth=2;rounded=0;entryX=0.5;entryY=1;entryDx=0;entryDy=0;fontColor=#3399FF;strokeColor=#3399FF;" parent="1" target="oRzCMFhJWEvcP08ix0-i-25" edge="1">
          <mxGeometry width="50" height="50" relative="1" as="geometry">
            <mxPoint x="478" y="1674" as="sourcePoint" />
            <mxPoint x="541" y="1347" as="targetPoint" />
          </mxGeometry>
        </mxCell>
        <mxCell id="oRzCMFhJWEvcP08ix0-i-28" value="" style="endArrow=classic;html=1;rounded=0;fillColor=#1ba1e2;strokeColor=#006EAF;startArrow=none;" parent="1" source="oRzCMFhJWEvcP08ix0-i-30" edge="1">
          <mxGeometry width="50" height="50" relative="1" as="geometry">
            <mxPoint x="201" y="1587" as="sourcePoint" />
            <mxPoint x="471" y="1587" as="targetPoint" />
          </mxGeometry>
        </mxCell>
        <mxCell id="oRzCMFhJWEvcP08ix0-i-29" value="&lt;font style=&quot;font-size: 13px&quot;&gt;Action&lt;/font&gt;" style="endArrow=classic;html=1;rounded=0;fillColor=#1ba1e2;strokeColor=#006EAF;fontColor=#3399FF;" parent="1" edge="1">
          <mxGeometry x="-0.0909" relative="1" as="geometry">
            <mxPoint x="483.5000000000001" y="1597" as="sourcePoint" />
            <mxPoint x="483.5000000000001" y="1647" as="targetPoint" />
            <Array as="points">
              <mxPoint x="513.5" y="1597" />
              <mxPoint x="513.5" y="1647" />
            </Array>
            <mxPoint as="offset" />
          </mxGeometry>
        </mxCell>
        <mxCell id="oRzCMFhJWEvcP08ix0-i-32" value="" style="endArrow=block;dashed=1;endFill=0;endSize=12;html=1;rounded=0;fillColor=#1ba1e2;strokeColor=#006EAF;" parent="1" edge="1">
          <mxGeometry width="160" relative="1" as="geometry">
            <mxPoint x="466" y="1657" as="sourcePoint" />
            <mxPoint x="196" y="1657" as="targetPoint" />
          </mxGeometry>
        </mxCell>
        <mxCell id="oRzCMFhJWEvcP08ix0-i-43" value="Open SSL socket" style="rhombus;whiteSpace=wrap;html=1;fillColor=#1ba1e2;fontColor=#ffffff;strokeColor=#006EAF;fontSize=16;fontStyle=1" parent="1" vertex="1">
          <mxGeometry x="1109" y="1148" width="170" height="103" as="geometry" />
        </mxCell>
        <mxCell id="oRzCMFhJWEvcP08ix0-i-47" value="" style="endArrow=classic;html=1;rounded=0;entryX=0.5;entryY=0;entryDx=0;entryDy=0;fontSize=18;fontStyle=1;exitX=0.494;exitY=0.999;exitDx=0;exitDy=0;exitPerimeter=0;" parent="1" target="oRzCMFhJWEvcP08ix0-i-43" edge="1" source="oRzCMFhJWEvcP08ix0-i-59">
          <mxGeometry width="50" height="50" relative="1" as="geometry">
            <mxPoint x="1192" y="1131" as="sourcePoint" />
            <mxPoint x="1239" y="1102" as="targetPoint" />
          </mxGeometry>
        </mxCell>
        <mxCell id="oRzCMFhJWEvcP08ix0-i-48" value="End" style="rounded=0;whiteSpace=wrap;html=1;fillColor=#1ba1e2;fontColor=#ffffff;strokeColor=#006EAF;fontSize=18;fontStyle=1" parent="1" vertex="1">
          <mxGeometry x="1136" y="1289" width="112" height="40" as="geometry" />
        </mxCell>
        <mxCell id="oRzCMFhJWEvcP08ix0-i-49" value="Receive message" style="rounded=0;whiteSpace=wrap;html=1;fillColor=#1ba1e2;fontColor=#ffffff;strokeColor=#006EAF;fontSize=18;fontStyle=1" parent="1" vertex="1">
          <mxGeometry x="1340" y="1429" width="160" height="60" as="geometry" />
        </mxCell>
        <mxCell id="oRzCMFhJWEvcP08ix0-i-50" value="E" style="endArrow=classic;html=1;rounded=0;entryX=0.5;entryY=0;entryDx=0;entryDy=0;exitX=0.5;exitY=1;exitDx=0;exitDy=0;fontSize=18;fontStyle=1;" parent="1" source="oRzCMFhJWEvcP08ix0-i-43" target="oRzCMFhJWEvcP08ix0-i-48" edge="1">
          <mxGeometry relative="1" as="geometry">
            <mxPoint x="1099" y="1252" as="sourcePoint" />
            <mxPoint x="1199" y="1252" as="targetPoint" />
          </mxGeometry>
        </mxCell>
        <mxCell id="oRzCMFhJWEvcP08ix0-i-51" value="Error" style="edgeLabel;resizable=0;html=1;align=center;verticalAlign=middle;fontSize=18;fontStyle=1" parent="oRzCMFhJWEvcP08ix0-i-50" connectable="0" vertex="1">
          <mxGeometry relative="1" as="geometry" />
        </mxCell>
        <mxCell id="oRzCMFhJWEvcP08ix0-i-52" value="" style="endArrow=classic;html=1;rounded=0;exitX=1;exitY=0.5;exitDx=0;exitDy=0;entryX=0.5;entryY=0;entryDx=0;entryDy=0;fontSize=18;fontStyle=1" parent="1" source="oRzCMFhJWEvcP08ix0-i-43" target="oRzCMFhJWEvcP08ix0-i-86" edge="1">
          <mxGeometry relative="1" as="geometry">
            <mxPoint x="1219" y="1192" as="sourcePoint" />
            <mxPoint x="1327" y="1189" as="targetPoint" />
            <Array as="points">
              <mxPoint x="1419" y="1199" />
            </Array>
          </mxGeometry>
        </mxCell>
        <mxCell id="oRzCMFhJWEvcP08ix0-i-53" value="Done" style="edgeLabel;resizable=0;html=1;align=center;verticalAlign=middle;fontSize=18;fontStyle=1" parent="oRzCMFhJWEvcP08ix0-i-52" connectable="0" vertex="1">
          <mxGeometry relative="1" as="geometry">
            <mxPoint x="-35" y="-3" as="offset" />
          </mxGeometry>
        </mxCell>
        <mxCell id="oRzCMFhJWEvcP08ix0-i-54" value="Generate secret key" style="rounded=0;whiteSpace=wrap;html=1;fillColor=#1ba1e2;fontColor=#ffffff;strokeColor=#006EAF;fontSize=18;fontStyle=1" parent="1" vertex="1">
          <mxGeometry x="1109" y="950" width="171" height="70" as="geometry" />
        </mxCell>
        <mxCell id="oRzCMFhJWEvcP08ix0-i-56" value="Start" style="rounded=1;whiteSpace=wrap;html=1;fillColor=#1ba1e2;fontColor=#ffffff;strokeColor=#006EAF;fontSize=18;fontStyle=1" parent="1" vertex="1">
          <mxGeometry x="1109" y="840" width="171" height="80" as="geometry" />
        </mxCell>
        <mxCell id="oRzCMFhJWEvcP08ix0-i-57" value="" style="endArrow=classic;html=1;rounded=0;entryX=0.5;entryY=0;entryDx=0;entryDy=0;exitX=0.5;exitY=1;exitDx=0;exitDy=0;fontSize=18;fontStyle=1" parent="1" source="oRzCMFhJWEvcP08ix0-i-56" target="oRzCMFhJWEvcP08ix0-i-54" edge="1">
          <mxGeometry width="50" height="50" relative="1" as="geometry">
            <mxPoint x="1099" y="1012" as="sourcePoint" />
            <mxPoint x="1149" y="962" as="targetPoint" />
          </mxGeometry>
        </mxCell>
        <mxCell id="oRzCMFhJWEvcP08ix0-i-59" value="Get revision number" style="rounded=0;whiteSpace=wrap;html=1;fillColor=#1ba1e2;fontColor=#ffffff;strokeColor=#006EAF;fontSize=18;fontStyle=1" parent="1" vertex="1">
          <mxGeometry x="1109" y="1052" width="171" height="78" as="geometry" />
        </mxCell>
        <mxCell id="oRzCMFhJWEvcP08ix0-i-62" value="" style="edgeStyle=orthogonalEdgeStyle;rounded=0;orthogonalLoop=1;jettySize=auto;html=1;exitX=0.5;exitY=1;exitDx=0;exitDy=0;fontSize=18;fontStyle=1;entryX=0.5;entryY=0;entryDx=0;entryDy=0;" parent="1" edge="1" target="oRzCMFhJWEvcP08ix0-i-59" source="oRzCMFhJWEvcP08ix0-i-54">
          <mxGeometry relative="1" as="geometry">
            <mxPoint x="1168.2" y="1012" as="sourcePoint" />
            <mxPoint x="1190" y="1051" as="targetPoint" />
          </mxGeometry>
        </mxCell>
        <mxCell id="oRzCMFhJWEvcP08ix0-i-63" value="Parse message" style="rounded=0;whiteSpace=wrap;html=1;fillColor=#1ba1e2;fontColor=#ffffff;strokeColor=#006EAF;fontSize=18;fontStyle=1" parent="1" vertex="1">
          <mxGeometry x="1340" y="1518" width="160" height="60" as="geometry" />
        </mxCell>
        <mxCell id="oRzCMFhJWEvcP08ix0-i-64" value="" style="endArrow=classic;html=1;rounded=0;entryX=0.5;entryY=0;entryDx=0;entryDy=0;exitX=0.5;exitY=1;exitDx=0;exitDy=0;fontSize=18;fontStyle=1" parent="1" target="oRzCMFhJWEvcP08ix0-i-63" edge="1" source="oRzCMFhJWEvcP08ix0-i-49">
          <mxGeometry width="50" height="50" relative="1" as="geometry">
            <mxPoint x="1386" y="1460" as="sourcePoint" />
            <mxPoint x="1596" y="1440" as="targetPoint" />
          </mxGeometry>
        </mxCell>
        <mxCell id="oRzCMFhJWEvcP08ix0-i-65" value="Call handle" style="rounded=0;whiteSpace=wrap;html=1;fillColor=#1ba1e2;fontColor=#ffffff;strokeColor=#006EAF;fontSize=18;fontStyle=1" parent="1" vertex="1">
          <mxGeometry x="1340" y="1602" width="160" height="57" as="geometry" />
        </mxCell>
        <mxCell id="oRzCMFhJWEvcP08ix0-i-66" value="" style="endArrow=classic;html=1;rounded=0;exitX=0.5;exitY=1;exitDx=0;exitDy=0;fontSize=18;fontStyle=1;entryX=0.5;entryY=0;entryDx=0;entryDy=0;" parent="1" source="oRzCMFhJWEvcP08ix0-i-63" edge="1" target="oRzCMFhJWEvcP08ix0-i-65">
          <mxGeometry width="50" height="50" relative="1" as="geometry">
            <mxPoint x="1383" y="1548" as="sourcePoint" />
            <mxPoint x="1420" y="1582" as="targetPoint" />
          </mxGeometry>
        </mxCell>
        <mxCell id="oRzCMFhJWEvcP08ix0-i-67" value="Storage revision" style="rounded=0;whiteSpace=wrap;html=1;fillColor=#1ba1e2;fontColor=#ffffff;strokeColor=#006EAF;fontSize=18;fontStyle=1" parent="1" vertex="1">
          <mxGeometry x="1340" y="1680" width="160" height="60" as="geometry" />
        </mxCell>
        <mxCell id="oRzCMFhJWEvcP08ix0-i-68" value="" style="endArrow=classic;html=1;rounded=0;exitX=0.5;exitY=1;exitDx=0;exitDy=0;entryX=0.5;entryY=0;entryDx=0;entryDy=0;fontSize=18;fontStyle=1" parent="1" source="oRzCMFhJWEvcP08ix0-i-65" edge="1" target="oRzCMFhJWEvcP08ix0-i-67">
          <mxGeometry width="50" height="50" relative="1" as="geometry">
            <mxPoint x="1385.47" y="1720" as="sourcePoint" />
            <mxPoint x="1386" y="1679" as="targetPoint" />
          </mxGeometry>
        </mxCell>
        <mxCell id="oRzCMFhJWEvcP08ix0-i-69" value="" style="endArrow=classic;html=1;rounded=0;exitX=0.5;exitY=1;exitDx=0;exitDy=0;entryX=-0.003;entryY=0.51;entryDx=0;entryDy=0;entryPerimeter=0;fontSize=18;fontStyle=1" parent="1" source="oRzCMFhJWEvcP08ix0-i-67" target="oRzCMFhJWEvcP08ix0-i-43" edge="1">
          <mxGeometry width="50" height="50" relative="1" as="geometry">
            <mxPoint x="1398.47" y="1492" as="sourcePoint" />
            <mxPoint x="1039" y="1182" as="targetPoint" />
            <Array as="points">
              <mxPoint x="1420" y="1762" />
              <mxPoint x="1041" y="1762" />
              <mxPoint x="1041" y="1200" />
            </Array>
          </mxGeometry>
        </mxCell>
        <mxCell id="oRzCMFhJWEvcP08ix0-i-71" value="&lt;font style=&quot;font-size: 15px&quot;&gt;Database&lt;/font&gt;" style="rounded=1;whiteSpace=wrap;html=1;fillColor=#1ba1e2;fontColor=#ffffff;strokeColor=#006EAF;" parent="1" vertex="1">
          <mxGeometry x="732" y="1235" width="120" height="60" as="geometry" />
        </mxCell>
        <mxCell id="oRzCMFhJWEvcP08ix0-i-72" value="" style="endArrow=none;dashed=1;html=1;dashPattern=1 3;strokeWidth=2;rounded=0;entryX=0.5;entryY=1;entryDx=0;entryDy=0;fontColor=#3399FF;strokeColor=#3399FF;" parent="1" target="oRzCMFhJWEvcP08ix0-i-71" edge="1">
          <mxGeometry width="50" height="50" relative="1" as="geometry">
            <mxPoint x="792" y="1732" as="sourcePoint" />
            <mxPoint x="854.5" y="1345" as="targetPoint" />
          </mxGeometry>
        </mxCell>
        <mxCell id="oRzCMFhJWEvcP08ix0-i-77" value="" style="endArrow=classic;html=1;rounded=0;fontSize=15;fillColor=#1ba1e2;strokeColor=#006EAF;" parent="1" edge="1">
          <mxGeometry relative="1" as="geometry">
            <mxPoint x="197" y="1696" as="sourcePoint" />
            <mxPoint x="781" y="1696" as="targetPoint" />
          </mxGeometry>
        </mxCell>
        <mxCell id="oRzCMFhJWEvcP08ix0-i-78" value="Storage revision" style="edgeLabel;resizable=0;html=1;align=center;verticalAlign=middle;fontSize=15;fontColor=#3399FF;" parent="oRzCMFhJWEvcP08ix0-i-77" connectable="0" vertex="1">
          <mxGeometry relative="1" as="geometry">
            <mxPoint x="47" y="-1" as="offset" />
          </mxGeometry>
        </mxCell>
        <mxCell id="oRzCMFhJWEvcP08ix0-i-81" value="" style="endArrow=block;dashed=1;endFill=0;endSize=12;html=1;rounded=0;fillColor=#1ba1e2;strokeColor=#006EAF;" parent="1" edge="1">
          <mxGeometry width="160" relative="1" as="geometry">
            <mxPoint x="781" y="1735.9999999999998" as="sourcePoint" />
            <mxPoint x="201" y="1737" as="targetPoint" />
          </mxGeometry>
        </mxCell>
        <mxCell id="oRzCMFhJWEvcP08ix0-i-85" value="" style="endArrow=none;dashed=1;html=1;rounded=0;fontSize=15;fontColor=#3399FF;strokeColor=#3399FF;" parent="1" edge="1">
          <mxGeometry width="50" height="50" relative="1" as="geometry">
            <mxPoint x="792" y="1799" as="sourcePoint" />
            <mxPoint x="792" y="1738" as="targetPoint" />
          </mxGeometry>
        </mxCell>
        <mxCell id="oRzCMFhJWEvcP08ix0-i-86" value="Send periodic list to Backend" style="rounded=0;whiteSpace=wrap;html=1;fillColor=#1ba1e2;fontColor=#ffffff;strokeColor=#006EAF;fontSize=18;fontStyle=1" parent="1" vertex="1">
          <mxGeometry x="1340" y="1302" width="160" height="80" as="geometry" />
        </mxCell>
        <mxCell id="oRzCMFhJWEvcP08ix0-i-89" value="WebGUI/TR069" style="rounded=1;whiteSpace=wrap;html=1;fontSize=15;fillColor=#1ba1e2;fontColor=#ffffff;strokeColor=#006EAF;" parent="1" vertex="1">
          <mxGeometry x="1045" y="713" width="154" height="64" as="geometry" />
        </mxCell>
        <mxCell id="oRzCMFhJWEvcP08ix0-i-90" value="Agent SafeApp" style="rounded=1;whiteSpace=wrap;html=1;fontSize=15;fillColor=#1ba1e2;fontColor=#ffffff;strokeColor=#006EAF;" parent="1" vertex="1">
          <mxGeometry x="1385" y="712" width="157" height="65" as="geometry" />
        </mxCell>
        <mxCell id="oRzCMFhJWEvcP08ix0-i-91" value="Set enable/disable&lt;br&gt;Set time" style="endArrow=classic;html=1;rounded=0;fontSize=15;entryX=0;entryY=0.5;entryDx=0;entryDy=0;exitX=1;exitY=0.5;exitDx=0;exitDy=0;fillColor=#1ba1e2;strokeColor=#006EAF;" parent="1" source="oRzCMFhJWEvcP08ix0-i-89" target="oRzCMFhJWEvcP08ix0-i-90" edge="1">
          <mxGeometry relative="1" as="geometry">
            <mxPoint x="1205" y="740" as="sourcePoint" />
            <mxPoint x="1305" y="740" as="targetPoint" />
          </mxGeometry>
        </mxCell>
        <mxCell id="oRzCMFhJWEvcP08ix0-i-98" value="" style="endArrow=none;dashed=1;html=1;dashPattern=1 3;strokeWidth=2;rounded=0;fontColor=#3399FF;strokeColor=#3399FF;" parent="1" edge="1">
          <mxGeometry width="50" height="50" relative="1" as="geometry">
            <mxPoint x="153" y="3518" as="sourcePoint" />
            <mxPoint x="153" y="3073" as="targetPoint" />
          </mxGeometry>
        </mxCell>
        <mxCell id="oRzCMFhJWEvcP08ix0-i-99" value="Agent SafeApp" style="rounded=1;whiteSpace=wrap;html=1;fillColor=#1ba1e2;fontColor=#ffffff;strokeColor=#006EAF;fontSize=18;" parent="1" vertex="1">
          <mxGeometry x="96" y="3015" width="120" height="60" as="geometry" />
        </mxCell>
        <mxCell id="oRzCMFhJWEvcP08ix0-i-100" value="&lt;font style=&quot;font-size: 15px;&quot;&gt;Get revision&lt;/font&gt;" style="endArrow=classic;html=1;rounded=0;fillColor=#1ba1e2;strokeColor=#006EAF;fontSize=15;fontColor=#3399FF;" parent="1" edge="1">
          <mxGeometry x="-0.0909" y="10" relative="1" as="geometry">
            <mxPoint x="156" y="3175" as="sourcePoint" />
            <mxPoint x="156" y="3225" as="targetPoint" />
            <Array as="points">
              <mxPoint x="186" y="3175" />
              <mxPoint x="186" y="3225" />
            </Array>
            <mxPoint as="offset" />
          </mxGeometry>
        </mxCell>
        <mxCell id="oRzCMFhJWEvcP08ix0-i-103" value="SSL Socket" style="rounded=1;whiteSpace=wrap;html=1;fillColor=#1ba1e2;fontColor=#ffffff;strokeColor=#006EAF;fontSize=18;" parent="1" vertex="1">
          <mxGeometry x="373.5" y="3015" width="120" height="60" as="geometry" />
        </mxCell>
        <mxCell id="oRzCMFhJWEvcP08ix0-i-104" value="" style="endArrow=none;dashed=1;html=1;dashPattern=1 3;strokeWidth=2;rounded=0;entryX=0.5;entryY=1;entryDx=0;entryDy=0;fontColor=#3399FF;strokeColor=#3399FF;" parent="1" target="oRzCMFhJWEvcP08ix0-i-103" edge="1">
          <mxGeometry width="50" height="50" relative="1" as="geometry">
            <mxPoint x="433" y="3544" as="sourcePoint" />
            <mxPoint x="496" y="3125" as="targetPoint" />
          </mxGeometry>
        </mxCell>
        <mxCell id="oRzCMFhJWEvcP08ix0-i-110" value="&lt;font style=&quot;font-size: 15px;&quot;&gt;Generate Secret Key&lt;/font&gt;" style="endArrow=classic;html=1;rounded=0;fillColor=#1ba1e2;strokeColor=#006EAF;fontSize=15;fontColor=#3399FF;" parent="1" edge="1">
          <mxGeometry y="44" relative="1" as="geometry">
            <mxPoint x="156" y="3105" as="sourcePoint" />
            <mxPoint x="156" y="3155" as="targetPoint" />
            <Array as="points">
              <mxPoint x="186" y="3105" />
              <mxPoint x="186" y="3155" />
            </Array>
            <mxPoint y="-1" as="offset" />
          </mxGeometry>
        </mxCell>
        <mxCell id="oRzCMFhJWEvcP08ix0-i-111" value="&lt;font style=&quot;font-size: 18px;&quot;&gt;HTTPS&lt;/font&gt;" style="rounded=1;whiteSpace=wrap;html=1;fillColor=#1ba1e2;fontColor=#ffffff;strokeColor=#006EAF;fontSize=18;" parent="1" vertex="1">
          <mxGeometry x="687" y="3013" width="120" height="60" as="geometry" />
        </mxCell>
        <mxCell id="oRzCMFhJWEvcP08ix0-i-112" value="" style="endArrow=none;dashed=1;html=1;dashPattern=1 3;strokeWidth=2;rounded=0;entryX=0.5;entryY=1;entryDx=0;entryDy=0;fontColor=#3399FF;strokeColor=#3399FF;" parent="1" target="oRzCMFhJWEvcP08ix0-i-111" edge="1">
          <mxGeometry width="50" height="50" relative="1" as="geometry">
            <mxPoint x="747" y="3538" as="sourcePoint" />
            <mxPoint x="809.5" y="3123" as="targetPoint" />
          </mxGeometry>
        </mxCell>
        <mxCell id="oRzCMFhJWEvcP08ix0-i-118" value="&lt;font style=&quot;font-size: 18px&quot;&gt;SafeApp Backend&lt;/font&gt;" style="rounded=1;whiteSpace=wrap;html=1;fillColor=#1ba1e2;fontColor=#ffffff;strokeColor=#006EAF;fontSize=18;" parent="1" vertex="1">
          <mxGeometry x="1025" y="3015" width="120" height="60" as="geometry" />
        </mxCell>
        <mxCell id="oRzCMFhJWEvcP08ix0-i-119" value="" style="endArrow=classic;html=1;rounded=0;fontSize=17;fillColor=#1ba1e2;strokeColor=#006EAF;" parent="1" edge="1">
          <mxGeometry relative="1" as="geometry">
            <mxPoint x="160" y="3240" as="sourcePoint" />
            <mxPoint x="750" y="3240" as="targetPoint" />
          </mxGeometry>
        </mxCell>
        <mxCell id="oRzCMFhJWEvcP08ix0-i-120" value="Generate request" style="edgeLabel;resizable=0;html=1;align=center;verticalAlign=middle;fontSize=17;fontColor=#3399FF;" parent="oRzCMFhJWEvcP08ix0-i-119" connectable="0" vertex="1">
          <mxGeometry relative="1" as="geometry" />
        </mxCell>
        <mxCell id="oRzCMFhJWEvcP08ix0-i-121" value="Encrypt data" style="endArrow=classic;html=1;rounded=0;fontSize=17;fontColor=#3399FF;fillColor=#1ba1e2;strokeColor=#006EAF;" parent="1" edge="1">
          <mxGeometry relative="1" as="geometry">
            <mxPoint x="160" y="3300" as="sourcePoint" />
            <mxPoint x="430" y="3300" as="targetPoint" />
          </mxGeometry>
        </mxCell>
        <mxCell id="oRzCMFhJWEvcP08ix0-i-123" value="" style="endArrow=none;dashed=1;html=1;dashPattern=1 3;strokeWidth=2;rounded=0;fontColor=#3399FF;strokeColor=#3399FF;" parent="1" edge="1">
          <mxGeometry width="50" height="50" relative="1" as="geometry">
            <mxPoint x="1084" y="3580" as="sourcePoint" />
            <mxPoint x="1081" y="3077" as="targetPoint" />
          </mxGeometry>
        </mxCell>
        <mxCell id="oRzCMFhJWEvcP08ix0-i-124" value="" style="endArrow=classic;startArrow=classic;html=1;rounded=0;fontSize=13;fontColor=#3399FF;fillColor=#1ba1e2;strokeColor=#006EAF;" parent="1" edge="1">
          <mxGeometry width="50" height="50" relative="1" as="geometry">
            <mxPoint x="750" y="3270" as="sourcePoint" />
            <mxPoint x="1080" y="3270" as="targetPoint" />
          </mxGeometry>
        </mxCell>
        <mxCell id="oRzCMFhJWEvcP08ix0-i-125" value="HTTPS handshake" style="text;html=1;strokeColor=none;fillColor=none;align=center;verticalAlign=middle;whiteSpace=wrap;rounded=0;fontSize=17;fontColor=#3399FF;labelBackgroundColor=default;" parent="1" vertex="1">
          <mxGeometry x="800" y="3250" width="210" height="40" as="geometry" />
        </mxCell>
        <mxCell id="oRzCMFhJWEvcP08ix0-i-126" value="Send request" style="endArrow=classic;html=1;rounded=0;fontSize=17;fontColor=#3399FF;fillColor=#1ba1e2;strokeColor=#006EAF;" parent="1" edge="1">
          <mxGeometry relative="1" as="geometry">
            <mxPoint x="440" y="3340" as="sourcePoint" />
            <mxPoint x="1080" y="3340" as="targetPoint" />
          </mxGeometry>
        </mxCell>
        <mxCell id="oRzCMFhJWEvcP08ix0-i-128" value="Encrypt and send respond" style="endArrow=classic;html=1;rounded=0;fontSize=17;fontColor=#3399FF;fillColor=#1ba1e2;strokeColor=#006EAF;" parent="1" edge="1">
          <mxGeometry relative="1" as="geometry">
            <mxPoint x="1080" y="3410" as="sourcePoint" />
            <mxPoint x="440" y="3410" as="targetPoint" />
          </mxGeometry>
        </mxCell>
        <mxCell id="oRzCMFhJWEvcP08ix0-i-130" value="Decrypt data" style="endArrow=classic;html=1;rounded=0;fontSize=17;fontColor=#3399FF;fillColor=#1ba1e2;strokeColor=#006EAF;" parent="1" edge="1">
          <mxGeometry relative="1" as="geometry">
            <mxPoint x="433" y="3483" as="sourcePoint" />
            <mxPoint x="156" y="3483" as="targetPoint" />
          </mxGeometry>
        </mxCell>
        <mxCell id="oRzCMFhJWEvcP08ix0-i-30" value="&lt;font style=&quot;font-size: 13px&quot;&gt;Call handle&lt;/font&gt;" style="text;html=1;strokeColor=none;fillColor=none;align=center;verticalAlign=middle;whiteSpace=wrap;rounded=0;labelBackgroundColor=default;fontColor=#3399FF;" parent="1" vertex="1">
          <mxGeometry x="286" y="1572" width="98" height="30" as="geometry" />
        </mxCell>
        <mxCell id="oRzCMFhJWEvcP08ix0-i-132" value="" style="endArrow=none;html=1;rounded=0;fillColor=#1ba1e2;strokeColor=#006EAF;" parent="1" target="oRzCMFhJWEvcP08ix0-i-30" edge="1">
          <mxGeometry width="50" height="50" relative="1" as="geometry">
            <mxPoint x="191" y="1587" as="sourcePoint" />
            <mxPoint x="471" y="1587" as="targetPoint" />
          </mxGeometry>
        </mxCell>
        <mxCell id="oRzCMFhJWEvcP08ix0-i-133" value="&lt;font style=&quot;font-size: 13px&quot;&gt;Receive Message&lt;/font&gt;" style="endArrow=classic;html=1;rounded=0;fillColor=#1ba1e2;strokeColor=#006EAF;fontColor=#3399FF;" parent="1" edge="1">
          <mxGeometry x="-0.0909" y="10" relative="1" as="geometry">
            <mxPoint x="194.99999999999977" y="1346.9999999999998" as="sourcePoint" />
            <mxPoint x="194" y="1396.9999999999998" as="targetPoint" />
            <Array as="points">
              <mxPoint x="231" y="1347" />
              <mxPoint x="231" y="1397" />
            </Array>
            <mxPoint as="offset" />
          </mxGeometry>
        </mxCell>
        <mxCell id="UErKtNkBOEROKgBnVaRn-6" value="System Call" style="text;html=1;strokeColor=none;fillColor=none;align=center;verticalAlign=middle;whiteSpace=wrap;rounded=0;fontSize=14;" parent="1" vertex="1">
          <mxGeometry x="1205" y="214" width="228" height="30" as="geometry" />
        </mxCell>
        <mxCell id="UErKtNkBOEROKgBnVaRn-7" value="SafeApp Backend" style="rounded=0;whiteSpace=wrap;html=1;fontSize=18;fillColor=#f5f5f5;fontColor=#333333;strokeColor=#666666;" parent="1" vertex="1">
          <mxGeometry x="310" y="135" width="359" height="142" as="geometry" />
        </mxCell>
        <mxCell id="UErKtNkBOEROKgBnVaRn-8" value="" style="shape=flexArrow;endArrow=classic;startArrow=classic;html=1;rounded=0;fontSize=18;entryX=0.5;entryY=1;entryDx=0;entryDy=0;exitX=0.5;exitY=0;exitDx=0;exitDy=0;fillColor=#1ba1e2;strokeColor=#006EAF;" parent="1" source="mK8-xpyxY12oYqtk83cb-22" target="UErKtNkBOEROKgBnVaRn-7" edge="1">
          <mxGeometry width="100" height="100" relative="1" as="geometry">
            <mxPoint x="456" y="384" as="sourcePoint" />
            <mxPoint x="556" y="284" as="targetPoint" />
          </mxGeometry>
        </mxCell>
        <mxCell id="MbshHFRm95-qyAn22eBI-4" value="E" style="endArrow=classic;html=1;rounded=0;entryX=0.5;entryY=0;entryDx=0;entryDy=0;fontSize=18;fontStyle=1" edge="1" parent="1" target="oRzCMFhJWEvcP08ix0-i-49">
          <mxGeometry relative="1" as="geometry">
            <mxPoint x="1420" y="1382" as="sourcePoint" />
            <mxPoint x="1386" y="1400" as="targetPoint" />
          </mxGeometry>
        </mxCell>
        <mxCell id="MbshHFRm95-qyAn22eBI-5" value="YES" style="edgeLabel;resizable=0;html=1;align=center;verticalAlign=middle;fontSize=18;fontStyle=1" connectable="0" vertex="1" parent="MbshHFRm95-qyAn22eBI-4">
          <mxGeometry relative="1" as="geometry" />
        </mxCell>
        <mxCell id="MbshHFRm95-qyAn22eBI-9" value="NO" style="endArrow=classic;html=1;rounded=0;fontSize=18;fontStyle=1;exitX=0;exitY=0.587;exitDx=0;exitDy=0;exitPerimeter=0;" edge="1" parent="1" source="oRzCMFhJWEvcP08ix0-i-86">
          <mxGeometry relative="1" as="geometry">
            <mxPoint x="1340" y="1319" as="sourcePoint" />
            <mxPoint x="1041" y="1349" as="targetPoint" />
          </mxGeometry>
        </mxCell>
        <mxCell id="MbshHFRm95-qyAn22eBI-10" value="NO" style="edgeLabel;resizable=0;html=1;align=center;verticalAlign=middle;fontSize=18;fontStyle=1" connectable="0" vertex="1" parent="MbshHFRm95-qyAn22eBI-9">
          <mxGeometry relative="1" as="geometry" />
        </mxCell>
      </root>
    </mxGraphModel>
  </diagram>
</mxfile>
